<svg xmlns="http://www.w3.org/2000/svg" viewBox="0 0 64 64" fill="none">
  <rect width="64" height="64" rx="18" fill="#070814"/>
  <circle cx="18" cy="18" r="18" fill="#2DD4BF" fill-opacity=".18"/>
  <circle cx="48" cy="16" r="18" fill="#C084FC" fill-opacity=".18"/>
  <circle cx="36" cy="50" r="20" fill="#F472B6" fill-opacity=".16"/>
  <path d="M15 18c0-3 2-5 5-5h24c3 0 5 2 5 5s-2 5-5 5h-8v23c0 3-2 5-5 5s-5-2-5-5V23h-6c-3 0-5-2-5-5Z" fill="#fff"/>
  <path d="M18 50c5-3 9-4 14-4 6 0 11 1 16 4" stroke="#2DD4BF" stroke-linecap="round" stroke-width="4"/>
</svg>
